<svg  fill="#28348b" height="512" viewBox="0 0 512 512" width="512" xmlns="http://www.w3.org/2000/svg"><g><path d="m448 8h-272a8 8 0 0 0 -8 8v40h-104a8 8 0 0 0 -8 8v432a8 8 0 0 0 8 8h272a8 8 0 0 0 8-8v-40h104a8 8 0 0 0 8-8v-432a8 8 0 0 0 -8-8zm-264 18.75 97.49 29.25h-97.49zm144 461.25h-256v-416h256zm112-48h-96v-376a8 8 0 0 0 -5.7-7.66l-107.79-32.34h209.49z"/><path d="m296 344v-176a8 8 0 0 0 -8-8h-176a8 8 0 0 0 -8 8v176a8 8 0 0 0 8 8h176a8 8 0 0 0 8-8zm-16-168v101.331l-37.6-50.131a8 8 0 0 0 -12.8 0l-49.6 66.135-13.6-18.135a8 8 0 0 0 -12.8 0l-33.6 44.8v-144zm-88 160h-64l32-42.667zm20 0-22-29.332 46-61.335 44 58.667v32z"/><path d="m160 256a32 32 0 1 0 -32-32 32.036 32.036 0 0 0 32 32zm0-48a16 16 0 1 1 -16 16 16.019 16.019 0 0 1 16-16z"/><path d="m96 104h96a8 8 0 0 0 0-16h-96a8 8 0 0 0 0 16z"/><path d="m128 120a8 8 0 0 0 -8-8h-24a8 8 0 0 0 0 16h24a8 8 0 0 0 8-8z"/><path d="m144 112a8 8 0 0 0 0 16h8a8 8 0 0 0 0-16z"/><path d="m304 432h-88a8 8 0 0 0 0 16h88a8 8 0 0 0 0-16z"/><path d="m304 456h-24a8 8 0 0 0 0 16h24a8 8 0 0 0 0-16z"/></g></svg>