<svg width="14" height="10" viewBox="0 0 14 10" fill="none" xmlns="http://www.w3.org/2000/svg">
<path d="M5.48599 9.73C5.35472 9.73027 5.2247 9.70461 5.10337 9.6545C4.98204 9.60439 4.87181 9.53082 4.77899 9.438L0.536988 5.195C0.441415 5.10282 0.365156 4.99253 0.312663 4.87056C0.260169 4.7486 0.232492 4.6174 0.231245 4.48462C0.229999 4.35184 0.255208 4.22015 0.305402 4.09722C0.355595 3.97429 0.429769 3.86258 0.523595 3.76863C0.61742 3.67467 0.729018 3.60034 0.851877 3.54997C0.974737 3.4996 1.1064 3.4742 1.23918 3.47526C1.37195 3.47632 1.50319 3.50381 1.62523 3.55614C1.74727 3.60846 1.85767 3.68456 1.94999 3.78L5.48499 7.315L11.85 0.952001C12.0375 0.76436 12.2919 0.658892 12.5571 0.658798C12.8224 0.658705 13.0768 0.763993 13.2645 0.951501C13.4521 1.13901 13.5576 1.39338 13.5577 1.65865C13.5578 1.92392 13.4525 2.17836 13.265 2.366L6.19299 9.438C6.10017 9.53082 5.98993 9.60439 5.86861 9.6545C5.74728 9.70461 5.61725 9.73027 5.48599 9.73Z" fill="#2FAB73"/>
</svg>
